<svg
  xmlns="http://www.w3.org/2000/svg"
  viewBox="0 0 70 70"
  fill="#0084FF"
>
  <g>
    <path
      class="st0"
      d="M35,2.2c18.1,0,32.8,14.7,32.8,32.8S53.1,67.8,35,67.8S2.2,53.1,2.2,35S16.9,2.2,35,2.2 M35,0
		C15.7,0,0,15.7,0,35s15.7,35,35,35s35-15.7,35-35S54.3,0,35,0L35,0z"
    ></path>
    <path
      class="st1"
      d="M51.3,12h-3L35,27.2L21.7,12v15.5l6.7,7.3l-6.7,7.6V12h-3C15,12,12,15,12,18.7v32.7c0,3.7,3,6.7,6.7,6.7h3
		l26.7-30.5V58h3c3.7,0,6.7-3,6.7-6.7V18.7C58,15,55,12,51.3,12z"
    ></path>
  </g>
</svg>